# xmcd
#
# Track frame offsets: 
#        150
#        12394
#        27087
#        44203
#        56203
#        70833
#        88464
#        105424
#        124459
#        138408
#        157166
#        173495
#        188476
#        201138
#
# Disc length: 2871 seconds
#
# Revision: 0
# Processed by: cddbd v1.5.2PL0 Copyright (c) Steve Scherf et al.
# Submitted via: ExactAudioCopy v0.95a4
#
DISCID=cb0b350e
DTITLE=The Gourds - Haymaker!
DYEAR=2009
DGENRE=Folk/Rock
TTITLE0=Country Love
TTITLE1=Fossil Contender
TTITLE2=The Way You Can Get
TTITLE3=Hey Thurman
TTITLE4=New Dues
TTITLE5=All The Way to Jericho
TTITLE6=Valentine
TTITLE7=Country Gal
TTITLE8=Bridgett
TTITLE9=Shreveport
TTITLE10=Luddite Juice
TTITLE11=Tex-Mex Mile
TTITLE12=Blanket Show
TTITLE13=Tighter
EXTD=
EXTT0=
EXTT1=
EXTT2=
EXTT3=
EXTT4=
EXTT5=
EXTT6=
EXTT7=
EXTT8=
EXTT9=
EXTT10=
EXTT11=
EXTT12=
EXTT13=
PLAYORDER=
